<?xml version="1.0" encoding="UTF-8"?>
<svg width="544px" height="410px" viewBox="0 0 544 410" version="1.1" xmlns="http://www.w3.org/2000/svg" xmlns:xlink="http://www.w3.org/1999/xlink">
    <!-- Generator: sketchtool 51.3 (57544) - http://www.bohemiancoding.com/sketch -->
    <title>83C1C0DA-6CD5-43C2-BA97-64A194586FB4</title>
    <desc>Created with sketchtool.</desc>
    <defs>
        <linearGradient x1="50%" y1="-10.8772052%" x2="50%" y2="100%" id="linearGradient-1">
            <stop stop-color="#FFE579" offset="0%"></stop>
            <stop stop-color="#FEB755" offset="100%"></stop>
        </linearGradient>
        <linearGradient x1="50%" y1="19.6859798%" x2="-33.8124944%" y2="294.476483%" id="linearGradient-2">
            <stop stop-color="#F7FAFF" offset="0%"></stop>
            <stop stop-color="#2DC46A" offset="100%"></stop>
        </linearGradient>
        <linearGradient x1="17.0115533%" y1="-9.9192638%" x2="132.29543%" y2="110.020248%" id="linearGradient-3">
            <stop stop-color="#33AC7D" offset="0%"></stop>
            <stop stop-color="#2DC46A" offset="100%"></stop>
        </linearGradient>
        <linearGradient x1="13.1828286%" y1="63.0352757%" x2="68.8791203%" y2="57.7365372%" id="linearGradient-4">
            <stop stop-color="#925948" offset="0%"></stop>
            <stop stop-color="#B06C57" offset="100%"></stop>
        </linearGradient>
        <linearGradient x1="92.5770334%" y1="68.3119178%" x2="-38.1539896%" y2="23.9090012%" id="linearGradient-5">
            <stop stop-color="#333333" offset="0%"></stop>
            <stop stop-color="#424242" offset="100%"></stop>
        </linearGradient>
        <linearGradient x1="107.254377%" y1="-120.462206%" x2="38.2696203%" y2="-120.462203%" id="linearGradient-6">
            <stop stop-color="#FAD0BA" offset="0%"></stop>
            <stop stop-color="#F2A384" offset="100%"></stop>
        </linearGradient>
        <linearGradient x1="50%" y1="32.1187137%" x2="67.2859088%" y2="115.977968%" id="linearGradient-7">
            <stop stop-color="#FFD76F" offset="0%"></stop>
            <stop stop-color="#FEB856" offset="100%"></stop>
        </linearGradient>
        <linearGradient x1="50%" y1="32.1187137%" x2="67.2859088%" y2="115.977968%" id="linearGradient-8">
            <stop stop-color="#84F0A8" offset="0%"></stop>
            <stop stop-color="#48B676" offset="100%"></stop>
        </linearGradient>
        <linearGradient x1="51.9515966%" y1="-8.25550815%" x2="39.2948805%" y2="156.336962%" id="linearGradient-9">
            <stop stop-color="#F7FAFF" offset="0%"></stop>
            <stop stop-color="#6B9AD9" offset="100%"></stop>
        </linearGradient>
        <linearGradient x1="50%" y1="19.6859798%" x2="24.7143554%" y2="116.330578%" id="linearGradient-10">
            <stop stop-color="#FFFFFF" offset="0%"></stop>
            <stop stop-color="#EBF4E4" offset="100%"></stop>
        </linearGradient>
        <linearGradient x1="45.8146591%" y1="15.1595137%" x2="75.9412525%" y2="70.6858623%" id="linearGradient-11">
            <stop stop-color="#F59BA9" offset="0%"></stop>
            <stop stop-color="#F25267" offset="100%"></stop>
        </linearGradient>
    </defs>
    <g id="Final" stroke="none" stroke-width="1" fill="none" fill-rule="evenodd">
        <g id="Homepage" transform="translate(-198.000000, -1949.000000)">
            <g id="illustration2" transform="translate(198.000000, 1942.000000)">
                <circle id="Background" fill="#F8FBF6" opacity="0.300000012" cx="417.371361" cy="172.371361" r="126.371361"></circle>
                <circle id="Background" fill="#F8FBF6" opacity="0.200000003" cx="126.371361" cy="255.371361" r="126.371361"></circle>
                <g id="Document" transform="translate(222.000000, 212.000000)" fill-rule="nonzero">
                    <path d="M13.5485691,8.11187774 L81.4948545,8.11187774 C82.8755663,8.11187774 83.9948545,9.23116587 83.9948545,10.6118777 L83.9948545,98.3949905 C83.9948545,99.7757024 82.8755663,100.894991 81.4948545,100.894991 L13.5485691,100.894991 C12.1678573,100.894991 11.0485691,99.7757024 11.0485691,98.3949905 L11.0485691,10.6118777 C11.0485691,9.23116587 12.1678573,8.11187774 13.5485691,8.11187774 Z" id="Document-base" fill="url(#linearGradient-1)" transform="translate(47.521712, 54.503434) rotate(-15.000000) translate(-47.521712, -54.503434) "></path>
                    <path d="M9.40183438,25.9639719 L42.1598796,17.1864802 L43.1535638,20.8949604 L10.3955187,29.6724521 L9.40183438,25.9639719 Z M18.2324064,34.1970971 L69.5327413,20.4512138 L70.5264256,24.159694 L19.2260907,37.9055773 L18.2324064,34.1970971 Z M52.6735492,88.5643888 L66.8893046,84.7552886 L67.8829889,88.4637688 L53.6672334,92.272869 L52.6735492,88.5643888 Z" id="Document-base" fill="#FFFFFF"></path>
                </g>
                <g id="Document" transform="translate(212.000000, 233.000000)">
                    <path d="M23.7866443,12.5910625 L91.7329296,12.5910625 C93.1136415,12.5910625 94.2329296,13.7103506 94.2329296,15.0910625 L94.2329296,102.874175 C94.2329296,104.254887 93.1136415,105.374175 91.7329296,105.374175 L23.7866443,105.374175 C22.4059324,105.374175 21.2866443,104.254887 21.2866443,102.874175 L21.2866443,15.0910625 C21.2866443,13.7103506 22.4059324,12.5910625 23.7866443,12.5910625 Z" id="Document-base" fill="url(#linearGradient-2)" fill-rule="nonzero" transform="translate(57.759787, 58.982619) rotate(-40.000000) translate(-57.759787, -58.982619) "></path>
                    <polygon id="Document-base" fill="#B7C8FF" fill-rule="nonzero" transform="translate(98.399876, 72.076268) rotate(-40.000000) translate(-98.399876, -72.076268) " points="91.0412594 70.1566177 105.758492 70.1566177 105.758492 73.9959189 91.0412594 73.9959189"></polygon>
                    <polygon id="Document-base" fill="#FDC2C0" fill-rule="nonzero" transform="translate(83.694587, 84.415545) rotate(-40.000000) translate(-83.694587, -84.415545) " points="76.3359708 82.495894 91.0532038 82.495894 91.0532038 86.3351952 76.3359708 86.3351952"></polygon>
                    <polygon id="Document-base" fill="url(#linearGradient-3)" transform="translate(25.373825, 39.798201) rotate(-40.000000) translate(-25.373825, -39.798201) " points="8.41701334 37.8785507 42.3306372 37.8785507 42.3306372 41.717852 8.41701334 41.717852"></polygon>
                    <path d="M22.6328968,52.9570308 L63.3175285,18.8185714 L65.7853837,21.7596467 L25.100752,55.8981062 L22.6328968,52.9570308 Z M24.3120418,64.9129782 L69.8984363,26.6614513 L72.3662916,29.6025267 L26.779897,67.8540535 L24.3120418,64.9129782 Z M30.8929496,72.7559075 L51.9705299,55.0697177 L54.4383852,58.0107931 L33.3608049,75.6969829 L30.8929496,72.7559075 Z M42.3756203,76.4856337 L83.060252,42.3471743 L85.5281073,45.2882496 L44.8434756,79.4267091 L42.3756203,76.4856337 Z M44.0547653,88.4415811 L89.6411599,50.1900542 L92.1090151,53.1311296 L46.5226206,91.3826565 L44.0547653,88.4415811 Z M50.6356732,96.2844858 L81.5167791,70.3721611 L83.9846344,73.3132365 L53.1035284,99.2255611 L50.6356732,96.2844858 Z" id="Document-base" fill="url(#linearGradient-3)"></path>
                </g>
                <g id="Coffee" transform="translate(334.000000, 296.000000)" fill-rule="nonzero">
                    <ellipse id="Coffee-base" fill="url(#linearGradient-2)" transform="translate(29.434466, 29.434643) rotate(-180.000000) translate(-29.434466, -29.434643) " cx="29.434466" cy="29.4346427" rx="29.434466" ry="29.4346427"></ellipse>
                    <path d="M30.0743457,47.3513817 L30.0743457,47.3513817 C31.8413247,47.3513817 33.2737442,48.7838012 33.2737442,50.5507802 L33.2737442,62.068703 L26.8749472,62.068703 L26.8749472,50.5507802 C26.8749472,48.7838012 28.3073667,47.3513817 30.0743457,47.3513817 Z" id="Coffee-base" fill="#32B179" transform="translate(30.074346, 54.710042) rotate(-180.000000) translate(-30.074346, -54.710042) "></path>
                    <ellipse id="Coffee-base" fill="#32B179" transform="translate(29.434466, 28.794759) rotate(-180.000000) translate(-29.434466, -28.794759) " cx="29.434466" cy="28.7947591" rx="19.8362706" ry="19.8363896"></ellipse>
                    <ellipse id="Coffee-base" fill="#1F8B5E" style="mix-blend-mode: multiply;" transform="translate(29.434466, 28.794759) rotate(-180.000000) translate(-29.434466, -28.794759) " cx="29.434466" cy="28.7947591" rx="15.9969924" ry="15.9970884"></ellipse>
                </g>
                <g id="Hand-man" transform="translate(210.000000, 0.000000)">
                    <path d="M22.4386188,201.657538 C36.5890239,203.393396 52.9182594,201.060919 71.4263255,194.660109 C77.1101113,191.010754 82.9235099,189.186076 88.8665213,189.186076 C97.4086596,189.186076 101.885164,179.88402 104.408057,182.565062 C104.916426,183.105297 105.354798,185.385667 104.408057,188.272469 C103.544377,190.906004 95.9906252,194.144149 94.7054338,196.959738 C94.1515075,198.173277 98.2867186,199.577429 100.952835,200.450843 C102.957394,201.107533 107.078056,201.657538 108.101837,201.657538 C109.125617,201.657538 122.188463,197.108517 123.182177,197.108517 C125.27598,201.707785 104.924812,215.209335 100.371474,216.32712 C94.9426586,217.659824 83.0761575,217.846861 64.7719703,216.888232 C40.2878045,223.920192 24.8932824,226.301988 18.5884041,224.033619 C6.87904575,219.820825 8.33886739,210.260065 22.4386188,201.657538 Z" id="Hand" fill="url(#linearGradient-4)" fill-rule="nonzero" transform="translate(67.032773, 203.471645) scale(-1, -1) rotate(-103.000000) translate(-67.032773, -203.471645) "></path>
                    <path d="M15.9720137,154.245643 C44.0121207,123.607414 91.3596698,73.8649892 87.7652623,11.305654 C94.1594963,13.330186 98.8199551,14.2721847 101.746639,14.1316501 C104.976524,13.9765562 109.550919,12.5911146 115.469823,9.97532541 C120.416017,79.4845681 111.181164,129.841599 87.7652623,161.046418 C50.0892283,161.046418 41.3599529,154.245643 15.9720137,154.245643 Z" id="Sleeve" fill="url(#linearGradient-5)" transform="translate(66.367860, 85.510872) scale(-1, -1) rotate(-13.000000) translate(-66.367860, -85.510872) "></path>
                    <ellipse id="Sleeve-buttons" fill="#F1F7ED" fill-rule="nonzero" transform="translate(51.618102, 151.034536) scale(-1, -1) rotate(-13.000000) translate(-51.618102, -151.034536) " cx="51.6181015" cy="151.034536" rx="3.51933833" ry="3.51935945"></ellipse>
                    <ellipse id="Sleeve-buttons" fill="#F1F7ED" fill-rule="nonzero" transform="translate(48.883211, 139.188352) scale(-1, -1) rotate(-13.000000) translate(-48.883211, -139.188352) " cx="48.8832109" cy="139.188352" rx="3.51933833" ry="3.51935945"></ellipse>
                </g>
                <g id="Hand-girl" transform="translate(229.000000, 204.000000)" fill-rule="nonzero">
                    <g id="Group" transform="translate(44.791579, 0.000000)">
                        <ellipse id="-bracelet-base" fill="url(#linearGradient-1)" cx="15.6770526" cy="59.1892271" rx="3.51933833" ry="3.51935945"></ellipse>
                        <ellipse id="-bracelet-base" fill="url(#linearGradient-1)" cx="36.1532028" cy="58.5493436" rx="3.51933833" ry="3.51935945"></ellipse>
                        <path d="M-18.7994457,48.5636142 C-6.62788412,50.0567233 7.41781245,48.0504286 23.337644,42.5447302 C28.2265888,39.4057141 33.2270209,37.836206 38.3389401,37.836206 C45.6865152,37.836206 55.5780188,27.2592175 57.7481017,29.5653327 C58.1853778,30.0300196 58.5624469,31.9914944 57.7481017,34.4745955 C57.0052011,36.7398478 43.2595915,46.1417667 42.1541258,48.5636142 C41.8689404,49.1883968 39.0346366,50.6464956 37.2680651,54.684644 C36.0832016,57.393085 36.3474211,61.3627923 37.2680651,61.6643933 C38.9922993,62.2292489 45.7017932,53.7242848 48.879021,52.1638696 C51.0677471,51.0889321 55.6484531,49.1945958 60.9483754,46.8360087 C63.3419972,45.770792 67.6084116,40.6850894 68.1687395,41.9159113 C69.9697373,45.872001 52.7956043,62.6557047 48.879021,63.617175 C44.2093909,64.7635085 33.7876698,64.1125813 17.6138578,61.6643933 C-3.4463543,67.7129788 -16.6880511,69.7616953 -22.1112326,67.810543 C-32.1831121,64.1868819 -30.9274372,55.9631329 -18.7994457,48.5636142 Z" id="Hand" fill="url(#linearGradient-6)" transform="translate(19.716144, 48.880409) rotate(-90.000000) translate(-19.716144, -48.880409) "></path>
                        <ellipse id="-bracelet-base" fill="url(#linearGradient-1)" cx="17.5966916" cy="61.7487613" rx="3.51933833" ry="3.51935945"></ellipse>
                        <ellipse id="-bracelet-base" fill="url(#linearGradient-1)" cx="22.7157292" cy="64.3082954" rx="3.51933833" ry="3.51935945"></ellipse>
                        <ellipse id="-bracelet-base" fill="url(#linearGradient-1)" cx="28.4746465" cy="63.6684119" rx="3.51933833" ry="3.51935945"></ellipse>
                        <ellipse id="-bracelet-base" fill="url(#linearGradient-1)" cx="34.2335637" cy="61.7487613" rx="3.51933833" ry="3.51935945"></ellipse>
                    </g>
                    <path d="M0.135838447,207.153543 C24.2547161,180.799874 64.9810138,138.013609 61.8892611,84.2027956 C67.3893025,85.9442098 71.398026,86.754476 73.9154316,86.6335942 C76.6936383,86.5001892 80.6283334,85.3084928 85.7195169,83.0585049 C89.9740173,142.847325 82.0305987,186.162248 61.8892611,213.003273 C29.4819792,213.003273 21.973437,207.153543 0.135838447,207.153543 Z" id="Sleeve" fill="url(#linearGradient-7)"></path>
                    <path d="M18.2802626,208.612748 L8.53119606,197.962939 C8.9593512,197.48963 9.3900235,197.012342 9.82297253,196.531098 L20.7610619,208.479787 L38.8685288,193.601846 L25.3574225,178.842413 L24.1216112,179.857813 C25.9421514,177.601175 27.7581856,175.284643 29.5542302,172.909603 L41.2881002,163.268507 L38.5075107,160.231011 C38.869086,159.678527 39.2285165,159.12345 39.5856485,158.565793 L42.7734238,162.048096 L58.0376972,149.506256 L49.7552353,140.458555 C50.0546718,139.836049 50.3500537,139.211002 50.6412172,138.583427 L59.5230208,148.285845 L74.7830526,135.74749 L63.0355244,122.914576 L52.9874635,133.24478 C53.6210788,131.717663 54.2281987,130.176464 54.8066159,128.621381 L61.7371503,121.496242 L58.2976769,117.738986 C58.4959032,117.002937 58.6871414,116.264106 58.8711835,115.522513 L63.0778743,120.117871 L75.2871585,107.565758 L65.7100342,97.1037776 L61.3882045,101.651072 C61.5062003,100.618781 61.609165,99.5817664 61.6966041,98.5400902 L64.4107005,95.684395 L62.0094038,93.0612361 C62.0373983,92.1337977 62.0527989,91.2028346 62.055274,90.2683766 L65.7363644,94.2895728 L73.0076163,86.6389885 C73.3291574,86.6490137 73.6317625,86.6472156 73.9154316,86.6335942 C74.5177213,86.6046732 75.174364,86.5260144 75.8853596,86.3976177 L67.0356981,95.7089554 L76.6278825,106.187387 L86.4642203,96.0748517 C86.5020198,96.9606348 86.5369092,97.8424878 86.5688886,98.7204105 L77.9262567,107.605722 L86.8041911,117.303912 C86.7922504,118.239501 86.7765269,119.169981 86.7570204,120.095351 L76.5855326,108.984093 L64.3762485,121.536205 L76.2683761,134.527078 L86.5761817,126.057704 C86.5417881,126.921685 86.5039342,127.780962 86.4626186,128.635564 L77.5664251,135.945058 L85.2572246,144.346431 C85.1661718,145.19564 85.0711717,146.039519 84.9722242,146.878066 L76.0811015,137.165469 L60.8210698,149.703824 L74.3321761,164.463257 L83.5635395,156.878338 C83.4030292,157.851233 83.2366078,158.816145 83.0642754,159.773073 L75.630225,165.881236 L80.6034772,171.313981 C80.417858,172.059939 80.2280903,172.800294 80.0341741,173.535046 L74.1449015,167.101648 L58.8806281,179.643488 L71.0965581,192.98808 L74.5658382,190.137558 C74.0431837,191.43145 73.5038273,192.702787 72.9477689,193.951566 L72.3946071,194.406059 L72.6286463,194.661722 C72.3409208,195.296197 72.048824,195.924769 71.7523559,196.547437 L70.9092835,195.626471 L55.1658803,208.561986 L59.2191181,212.989713 C58.3193068,212.980464 57.4394929,212.966575 56.5787211,212.948331 L53.6805567,209.782397 L50.1097035,212.716377 C49.1432784,212.666757 48.2030977,212.611415 47.2872456,212.550924 L52.3825078,208.364418 L40.1665777,195.019826 L22.7357951,209.341771 C21.2443018,209.088077 19.7684378,208.842292 18.2802651,208.612748 L18.2802626,208.612748 Z M80.9503091,84.9783908 L86.2026692,90.7160305 C86.2579997,91.7250714 86.3096843,92.7291883 86.3577232,93.7283814 L78.9525551,85.6390269 C79.5882899,85.4464352 80.2542079,85.2262232 80.9503091,84.9783908 Z M53.8678314,207.144007 L69.6112345,194.208491 L57.3953045,180.863899 L41.6519013,193.799414 L53.8678314,207.144007 Z M72.8468525,165.683669 L59.3357462,150.924235 L44.0714728,163.466075 L57.5825791,178.225509 L72.8468525,165.683669 Z M56.0972555,179.44592 L42.5861492,164.686486 L26.842746,177.622002 L40.3538524,192.381435 L56.0972555,179.44592 Z" id="Texture" fill="#F5B650"></path>
                    <path d="M85.2751977,83.2534586 C85.4223122,83.1893817 85.5704186,83.1243971 85.7195169,83.0585049 C89.9740173,142.847325 82.0305987,186.162248 61.8892611,213.003273 C58.0660336,213.003273 54.5893453,212.921857 51.3947858,212.778234 C76.6316896,183.6224 87.9251602,140.447474 85.2751977,83.2534586 Z" id="Shadow" fill="url(#linearGradient-8)" style="mix-blend-mode: multiply;" opacity="0.200000003"></path>
                </g>
                <g id="Macbook" transform="translate(51.000000, 245.000000)">
                    <path d="M101.933477,3.67458269 L187.689232,87.9330198 L188.150002,89.0112997 C188.560874,89.9728102 188.345583,91.0875639 187.606223,91.8269286 L132.724714,146.708767 C131.72516,147.708327 130.104562,147.708327 129.105008,146.708767 L43.5526479,61.155893 C42.7658483,60.3690886 42.5775162,59.1640852 43.0867159,58.1747243 L43.7806119,56.8265035 L98.3536895,3.66686405 C99.3506056,2.69576793 100.940758,2.69919657 101.933477,3.67458269 Z" id="Macbook-base" fill="#1F8B5E"></path>
                    <path d="M57.8228998,32.3469437 L173.23932,32.3469437 C176.000744,32.3469437 178.23932,34.5855199 178.23932,37.3469437 L178.23932,109.252036 C178.23932,112.01346 176.000744,114.252036 173.23932,114.252036 L57.8228998,114.252036 C55.0614761,114.252036 52.8228998,112.01346 52.8228998,109.252036 L52.8228998,37.3469437 C52.8228998,34.5855199 55.0614761,32.3469437 57.8228998,32.3469437 Z" id="Macbook-base" fill="url(#linearGradient-2)" fill-rule="nonzero" transform="translate(115.531110, 73.299490) rotate(-315.000000) translate(-115.531110, -73.299490) "></path>
                    <path d="M55.4130587,57.1313944 L159.391004,57.1313944 C162.150183,57.1313944 164.387829,59.3664699 164.391,62.125648 L164.433334,98.9603272 C164.436507,101.721749 162.200505,103.962897 159.439083,103.96607 C159.437168,103.966072 159.435252,103.966074 159.433337,103.966074 L55.455392,103.966074 C52.696212,103.966074 50.4585663,101.730998 50.4553953,98.97182 L50.413062,62.1371407 C50.4098883,59.3757188 52.6458904,57.1345713 55.4073123,57.1313977 C55.4092278,57.1313955 55.4111432,57.1313944 55.4130587,57.1313944 Z" id="Macbook-base" fill="url(#linearGradient-9)" fill-rule="nonzero" style="mix-blend-mode: multiply;" opacity="0.100000001" transform="translate(107.423198, 80.548734) rotate(-315.000000) translate(-107.423198, -80.548734) "></path>
                    <path d="M146.105743,100.870717 L146.119175,94.8500686 C146.119916,94.5178767 146.383389,94.2494729 146.70762,94.2505719 L152.084198,94.2687955 C152.408446,94.2698945 152.670699,94.5407812 152.669959,94.8722721 L152.656528,100.89292 C152.655787,101.225112 152.392313,101.493516 152.068083,101.492417 L146.691505,101.474193 C146.367257,101.473094 146.105004,101.202208 146.105743,100.870717 Z M53.9846821,65.2421852 C53.9854237,64.9097612 54.248704,64.6411687 54.5731234,64.6422683 L60.0474836,64.6608233 C60.3717292,64.6619223 60.6339804,64.932574 60.6332394,65.2647201 L60.6216006,70.4819031 C60.620859,70.8143271 60.3575787,71.0829197 60.0331592,71.0818201 L54.558799,71.063265 C54.2345534,71.062166 53.9723022,70.7915144 53.9730432,70.4593683 L53.9846821,65.2421852 Z M61.3176497,65.2670399 C61.3183913,64.9346159 61.5816716,64.6660234 61.9060911,64.667123 L67.3804513,64.685678 C67.7046969,64.686777 67.9669481,64.9574286 67.9662071,65.2895748 L67.9545682,70.5067578 C67.9538266,70.8391818 67.6905463,71.1077743 67.3661269,71.1066747 L61.8917667,71.0881197 C61.5675211,71.0870207 61.3052699,70.8163691 61.3060109,70.4842229 L61.3176497,65.2670399 Z M65.4077729,72.6049079 C65.4085144,72.2724839 65.6717947,72.0038914 65.9962142,72.004991 L71.4705744,72.023546 C71.79482,72.024645 72.0570712,72.2952967 72.0563302,72.6274428 L72.0446913,77.8446258 C72.0439498,78.1770498 71.7806695,78.4456423 71.45625,78.4445427 L65.9818898,78.4259877 C65.6576442,78.4248887 65.395393,78.1542371 65.396134,77.8220909 L65.4077729,72.6049079 Z M72.7407405,72.6297626 C72.7414821,72.2973386 73.0047624,72.028746 73.3291819,72.0298456 L78.8035421,72.0484007 C79.1277877,72.0494997 79.3900388,72.3201513 79.3892979,72.6522975 L79.377659,77.8694805 C79.3769174,78.2019045 79.1136371,78.470497 78.7892176,78.4693974 L73.3148575,78.4508424 C72.9906119,78.4497434 72.7283607,78.1790917 72.7291017,77.8469456 L72.7407405,72.6297626 Z M80.0737082,72.6546172 C80.0744498,72.3221933 80.3377301,72.0536007 80.6621496,72.0547003 L86.1365097,72.0732553 C86.4607553,72.0743543 86.7230065,72.345006 86.7222655,72.6771521 L86.7106267,77.8943351 C86.7098851,78.2267591 86.4466048,78.4953517 86.1221853,78.4942521 L80.6478251,78.475697 C80.3235795,78.474598 80.0613284,78.2039464 80.0620693,77.8718003 L80.0737082,72.6546172 Z M87.4066758,72.6794719 C87.4074174,72.3470479 87.6706977,72.0784554 87.9951172,72.079555 L93.4694774,72.09811 C93.793723,72.099209 94.0559742,72.3698606 94.0552332,72.7020068 L94.0435943,77.9191898 C94.0428527,78.2516138 93.7795725,78.5202063 93.455153,78.5191067 L87.9807928,78.5005517 C87.6565472,78.4994527 87.394296,78.2288011 87.395037,77.8966549 L87.4066758,72.6794719 Z M94.7396435,72.7043266 C94.7403851,72.3719026 95.0036654,72.10331 95.3280849,72.1044096 L100.802445,72.1229647 C101.126691,72.1240637 101.388942,72.3947153 101.388201,72.7268614 L101.376562,77.9440445 C101.37582,78.2764685 101.11254,78.545061 100.788121,78.5439614 L95.3137605,78.5254064 C94.9895149,78.5243074 94.7272637,78.2536557 94.7280047,77.9215096 L94.7396435,72.7043266 Z M102.072611,72.7291812 C102.073353,72.3967572 102.336633,72.1281647 102.661053,72.1292643 L108.135413,72.1478193 C108.459658,72.1489183 108.72191,72.41957 108.721169,72.7517161 L108.70953,77.9688991 C108.708788,78.3013231 108.445508,78.5699157 108.121088,78.5688161 L102.646728,78.550261 C102.322483,78.549162 102.060231,78.2785104 102.060972,77.9463642 L102.072611,72.7291812 Z M109.405579,72.7540359 C109.40632,72.4216119 109.669601,72.1530194 109.99402,72.154119 L115.46838,72.172674 C115.792626,72.173773 116.054877,72.4444246 116.054136,72.7765708 L116.042497,77.9937538 C116.041756,78.3261778 115.778475,78.5947703 115.454056,78.5936707 L109.979696,78.5751157 C109.65545,78.5740167 109.393199,78.303365 109.39394,77.9712189 L109.405579,72.7540359 Z M116.738547,72.7788905 C116.739288,72.4464666 117.002568,72.177874 117.326988,72.1789736 L122.801348,72.1975286 C123.125594,72.1986276 123.387845,72.4692793 123.387104,72.8014254 L123.375465,78.0186085 C123.374723,78.3510324 123.111443,78.619625 122.787024,78.6185254 L117.312663,78.5999704 C116.988418,78.5988713 116.726167,78.3282197 116.726908,77.9960736 L116.738547,72.7788905 Z M68.6506174,65.2918946 C68.651359,64.9594706 68.9146393,64.690878 69.2390588,64.6919776 L74.7134189,64.7105326 C75.0376645,64.7116317 75.2999157,64.9822833 75.2991748,65.3144294 L75.2875359,70.5316125 C75.2867943,70.8640364 75.023514,71.132629 74.6990945,71.1315294 L69.2247344,71.1129744 C68.9004888,71.1118754 68.6382376,70.8412237 68.6389785,70.5090776 L68.6506174,65.2918946 Z M75.9835851,65.3167492 C75.9843267,64.9843252 76.247607,64.7157327 76.5720264,64.7168323 L82.0463866,64.7353873 C82.3706322,64.7364863 82.6328834,65.007138 82.6321424,65.3392841 L82.6205036,70.5564671 C82.619762,70.8888911 82.3564817,71.1574837 82.0320622,71.1563841 L76.557702,71.137829 C76.2334564,71.13673 75.9712052,70.8660784 75.9719462,70.5339322 L75.9835851,65.3167492 Z M83.3165527,65.3416039 C83.3172943,65.0091799 83.5805746,64.7405874 83.9049941,64.741687 L89.3793543,64.760242 C89.7035999,64.761341 89.9658511,65.0319926 89.9651101,65.3641388 L89.9534712,70.5813218 C89.9527296,70.9137458 89.6894493,71.1823383 89.3650299,71.1812387 L83.8906697,71.1626837 C83.5664241,71.1615847 83.3041729,70.890933 83.3049139,70.5587869 L83.3165527,65.3416039 Z M90.6495204,65.3664585 C90.650262,65.0340346 90.9135423,64.765442 91.2379618,64.7665416 L96.7123219,64.7850966 C97.0365675,64.7861956 97.2988187,65.0568473 97.2980777,65.3889934 L97.2864389,70.6061765 C97.2856973,70.9386004 97.022417,71.207193 96.6979975,71.2060934 L91.2236374,71.1875384 C90.8993918,71.1864393 90.6371406,70.9157877 90.6378815,70.5836416 L90.6495204,65.3664585 Z M97.9824881,65.3913132 C97.9832297,65.0588892 98.2465099,64.7902967 98.5709294,64.7913963 L104.04529,64.8099513 C104.369535,64.8110503 104.631786,65.0817019 104.631045,65.4138481 L104.619407,70.6310311 C104.618665,70.9634551 104.355385,71.2320476 104.030965,71.230948 L98.556605,71.212393 C98.2323594,71.211294 97.9701082,70.9406424 97.9708492,70.6084962 L97.9824881,65.3913132 Z M105.315456,65.4161679 C105.316197,65.0837439 105.579478,64.8151513 105.903897,64.8162509 L111.378257,64.834806 C111.702503,64.835905 111.964754,65.1065566 111.964013,65.4387028 L111.952374,70.6558858 C111.951633,70.9883098 111.688352,71.2569023 111.363933,71.2558027 L105.889573,71.2372477 C105.565327,71.2361487 105.303076,70.965497 105.303817,70.6333509 L105.315456,65.4161679 Z M112.648423,65.4410225 C112.649165,65.1085985 112.912445,64.840006 113.236865,64.8411056 L118.711225,64.8596606 C119.035471,64.8607596 119.297722,65.1314113 119.296981,65.4635574 L119.285342,70.6807404 C119.2846,71.0131644 119.02132,71.281757 118.696901,71.2806574 L113.22254,71.2621023 C112.898295,71.2610033 112.636044,70.9903517 112.636785,70.6582055 L112.648423,65.4410225 Z M119.981391,65.4658772 C119.982133,65.1334532 120.245413,64.8648607 120.569832,64.8659603 L126.044193,64.8845153 C126.368438,64.8856143 126.630689,65.1562659 126.629948,65.4884121 L126.61831,70.7055951 C126.617568,71.0380191 126.354288,71.3066116 126.029868,71.305512 L120.555508,71.286957 C120.231262,71.285858 119.969011,71.0152063 119.969752,70.6830602 L119.981391,65.4658772 Z M53.9683433,72.5661346 C53.9690849,72.2337107 54.2324623,71.9651184 54.5559392,71.9662148 L64.0406793,71.9983628 C64.364458,71.9994602 64.6263306,72.2701106 64.6255896,72.6022567 L64.6139508,77.8194398 C64.6132092,78.1518637 64.3498318,78.420456 64.0263549,78.4193596 L54.5416148,78.3872116 C54.2178361,78.3861142 53.9559635,78.1154638 53.9567044,77.7833177 L53.9683433,72.5661346 Z M53.9960978,60.1250393 C53.9968388,59.7928441 54.2604992,59.5244382 54.5839227,59.5255344 L60.2550597,59.5447564 C60.5789654,59.5458543 60.8409404,59.8167452 60.8402009,60.148237 L60.8334842,63.1590307 C60.8327431,63.4912259 60.5690828,63.7596318 60.2456593,63.7585355 L54.5745223,63.7393136 C54.2506166,63.7382157 53.9886416,63.4673248 53.9893811,63.135833 L53.9960978,60.1250393 Z M61.6223841,60.1508882 C61.6231252,59.8186929 61.8867856,59.5502871 62.210209,59.5513833 L67.8813461,59.5706053 C68.2052517,59.5717031 68.4672268,59.8425941 68.4664873,60.1740858 L68.4597706,63.1848795 C68.4590295,63.5170748 68.1953692,63.7854806 67.8719457,63.7843844 L62.2008086,63.7651624 C61.876903,63.7640645 61.6149279,63.4931736 61.6156674,63.1616818 L61.6223841,60.1508882 Z M69.2486705,60.176737 C69.2494116,59.8445417 69.5130719,59.5761359 69.8364954,59.5772321 L75.5076325,59.5964541 C75.8315381,59.597552 76.0935132,59.8684429 76.0927737,60.1999347 L76.086057,63.2107284 C76.0853159,63.5429236 75.8216555,63.8113295 75.4982321,63.8102332 L69.827095,63.7910112 C69.5031894,63.7899134 69.2412143,63.5190225 69.2419538,63.1875307 L69.2486705,60.176737 Z M76.8749569,60.2025859 C76.875698,59.8703906 77.1393583,59.6019848 77.4627818,59.603081 L83.1339188,59.622303 C83.4578245,59.6234008 83.7197995,59.8942918 83.71906,60.2257835 L83.7123433,63.2365772 C83.7116023,63.5687725 83.4479419,63.8371783 83.1245184,63.8360821 L77.4533814,63.8168601 C77.1294757,63.8157622 76.8675007,63.5448713 76.8682402,63.2133795 L76.8749569,60.2025859 Z M84.5012432,60.2284347 C84.5019843,59.8962394 84.7656447,59.6278336 85.0890681,59.6289298 L90.7602052,59.6481518 C91.0841108,59.6492497 91.3460859,59.9201406 91.3453464,60.2516324 L91.3386297,63.2624261 C91.3378886,63.5946213 91.0742283,63.8630272 90.7508048,63.8619309 L85.0796678,63.8427089 C84.7557621,63.8416111 84.493787,63.5707201 84.4945266,63.2392284 L84.5012432,60.2284347 Z M92.1275296,60.2542835 C92.1282707,59.9220883 92.391931,59.6536825 92.7153545,59.6547787 L98.3864916,59.6740007 C98.7103972,59.6750985 98.9723723,59.9459895 98.9716328,60.2774812 L98.9649161,63.2882749 C98.964175,63.6204702 98.7005147,63.888876 98.3770912,63.8877798 L92.7059541,63.8685578 C92.3820485,63.8674599 92.1200734,63.596569 92.1208129,63.2650772 L92.1275296,60.2542835 Z M99.753816,60.2801324 C99.7545571,59.9479371 100.018217,59.6795313 100.341641,59.6806275 L106.012778,59.6998495 C106.336684,59.7009474 106.598659,59.9718383 106.597919,60.3033301 L106.591202,63.3141238 C106.590461,63.646319 106.326801,63.9147249 106.003378,63.9136286 L100.33224,63.8944066 C100.008335,63.8933088 99.7463598,63.6224178 99.7470993,63.2909261 L99.753816,60.2801324 Z M107.380102,60.3059812 C107.380843,59.973786 107.644504,59.7053802 107.967927,59.7064764 L113.639064,59.7256984 C113.96297,59.7267962 114.224945,59.9976872 114.224206,60.3291789 L114.217489,63.3399726 C114.216748,63.6721679 113.953087,63.9405737 113.629664,63.9394775 L107.958527,63.9202555 C107.634621,63.9191576 107.372646,63.6482667 107.373386,63.3167749 L107.380102,60.3059812 Z M115.006389,60.3318301 C115.00713,59.9996348 115.27079,59.731229 115.594214,59.7323252 L121.265351,59.7515472 C121.589256,59.7526451 121.851231,60.023536 121.850492,60.3550278 L121.843775,63.3658215 C121.843034,63.6980167 121.579374,63.9664225 121.25595,63.9653263 L115.584813,63.9461043 C115.260908,63.9450065 114.998933,63.6741155 114.999672,63.3426238 L115.006389,60.3318301 Z M122.632675,60.3576789 C122.633416,60.0254837 122.897077,59.7570778 123.2205,59.7581741 L128.891637,59.7773961 C129.215543,59.7784939 129.477518,60.0493849 129.476778,60.3808766 L129.470062,63.3916703 C129.46932,63.7238656 129.20566,63.9922714 128.882237,63.9911752 L123.2111,63.9719532 C122.887194,63.9708553 122.625219,63.6999644 122.625958,63.3684726 L122.632675,60.3576789 Z M159.954169,72.9253673 L159.926192,85.4663207 C159.92545,85.7988436 159.662031,86.0675158 159.33818,86.0664182 L155.525099,86.0534939 C155.201091,86.0523957 154.939032,85.7821381 154.939774,85.4494195 L154.95477,78.7275561 L153.879729,78.7239123 C153.555483,78.7228133 153.293232,78.4521616 153.293973,78.1200155 L153.305612,72.9028325 C153.306354,72.5704085 153.569634,72.3018159 153.894053,72.3029155 L159.368413,72.3214706 C159.692659,72.3225696 159.95491,72.5932212 159.954169,72.9253673 Z M125.619542,80.1329969 C125.620283,79.800573 125.883564,79.5319804 126.207983,79.53308 L131.682343,79.551635 C132.006589,79.552734 132.26884,79.8233857 132.268099,80.1555318 L132.25646,85.3727149 C132.255719,85.7051388 131.992438,85.9737314 131.668019,85.9726318 L126.193659,85.9540768 C125.869413,85.9529777 125.607162,85.6823261 125.607903,85.35018 L125.619542,80.1329969 Z M132.952509,80.1578516 C132.953251,79.8254276 133.216531,79.5568351 133.540951,79.5579347 L139.015311,79.5764897 C139.339557,79.5775887 139.601808,79.8482404 139.601067,80.1803865 L139.589428,85.3975695 C139.588686,85.7299935 139.325406,85.998586 139.000987,85.9974864 L133.526626,85.9789314 C133.202381,85.9778324 132.94013,85.7071808 132.940871,85.3750346 L132.952509,80.1578516 Z M140.285477,80.1827063 C140.286219,79.8502823 140.549499,79.5816897 140.873919,79.5827893 L146.348279,79.6013444 C146.672524,79.6024434 146.934775,79.873095 146.934035,80.2052412 L146.922396,85.4224242 C146.921654,85.7548482 146.658374,86.0234407 146.333954,86.0223411 L140.859594,86.0037861 C140.535349,86.0026871 140.273097,85.7320354 140.273838,85.3998893 L140.285477,80.1827063 Z M147.618445,80.2075609 C147.619186,79.8751369 147.882467,79.6065444 148.206886,79.607644 L153.681246,79.626199 C154.005492,79.627298 154.267743,79.8979497 154.267002,80.2300958 L154.255363,85.4472788 C154.254622,85.7797028 153.991341,86.0482954 153.666922,86.0471958 L148.192562,86.0286407 C147.868316,86.0275417 147.606065,85.7568901 147.606806,85.4247439 L147.618445,80.2075609 Z M131.551011,94.8011157 C131.551753,94.4686891 131.815033,94.2000944 132.139453,94.201194 L137.613813,94.219749 C137.938058,94.220848 138.200309,94.4917297 138.199569,94.8236506 L138.186139,100.843449 C138.185398,101.175875 137.922117,101.44447 137.597698,101.44337 L132.123338,101.424815 C131.799092,101.423716 131.536841,101.152835 131.537582,100.820914 L131.551011,94.8011157 Z M138.875922,98.437356 C138.876664,98.1051641 139.140137,97.8367603 139.464368,97.8378593 L144.840945,97.8560829 C145.165194,97.8571819 145.427446,98.1280686 145.426707,98.4595595 L145.421333,100.868397 C145.420592,101.200589 145.157118,101.468993 144.832888,101.467894 L139.45631,101.44967 C139.132062,101.448571 138.869809,101.177684 138.870549,100.846193 L138.875922,98.437356 Z M153.346312,98.4864025 C153.347053,98.1542106 153.610527,97.8858069 153.934757,97.8869058 L159.311335,97.9051294 C159.635583,97.9062284 159.897836,98.1771151 159.897096,98.508606 L159.891723,100.917443 C159.890982,101.249635 159.627508,101.518039 159.303277,101.51694 L153.9267,101.498717 C153.602451,101.497617 153.340199,101.226731 153.340938,100.89524 L153.346312,98.4864025 Z M122.06704,94.7689704 C122.067781,94.4365437 122.330541,94.1679472 122.655126,94.1690474 L130.281201,94.1948955 C130.60525,94.1959939 130.867341,94.466875 130.866601,94.7987959 L130.853172,100.818594 C130.85243,101.151021 130.58967,101.419617 130.265086,101.418517 L122.639011,101.392669 C122.314961,101.39157 122.05287,101.120689 122.05361,100.788768 L122.06704,94.7689704 Z M144.082282,87.5195801 C144.083023,87.1871561 144.346145,86.918563 144.670281,86.9196617 L159.336177,86.9693709 C159.660179,86.970469 159.922233,87.24112 159.921492,87.5732662 L159.909853,92.7904492 C159.909111,93.1228732 159.645989,93.3914662 159.321853,93.3903676 L144.655957,93.3406584 C144.331955,93.3395602 144.069902,93.0689093 144.070643,92.7367631 L144.082282,87.5195801 Z M129.416346,87.4698708 C129.417088,87.1374468 129.680368,86.8688542 130.004788,86.8699538 L135.479148,86.8885089 C135.803393,86.8896079 136.065645,87.1602595 136.064904,87.4924057 L136.053265,92.7095887 C136.052523,93.0420127 135.789243,93.3106052 135.464823,93.3095056 L129.990463,93.2909506 C129.666218,93.2898516 129.403966,93.0191999 129.404707,92.6870538 L129.416346,87.4698708 Z M136.749314,87.4947254 C136.750056,87.1623015 137.013336,86.8937089 137.337755,86.8948085 L142.812115,86.9133635 C143.136361,86.9144625 143.398612,87.1851142 143.397871,87.5172603 L143.386232,92.7344433 C143.385491,93.0668673 143.122211,93.3354599 142.797791,93.3343603 L137.323431,93.3158053 C136.999185,93.3147062 136.736934,93.0440546 136.737675,92.7119085 L136.749314,87.4947254 Z M124.071514,72.8037452 C124.072256,72.4713212 124.335536,72.2027287 124.659956,72.2038283 L130.134316,72.2223833 C130.458561,72.2234823 130.720812,72.494134 130.720072,72.8262801 L130.708433,78.0434631 C130.707691,78.3758871 130.444411,78.6444796 130.119991,78.64338 L124.645631,78.624825 C124.321386,78.623726 124.059134,78.3530744 124.059875,78.0209282 L124.071514,72.8037452 Z M131.404482,72.8285999 C131.405223,72.4961759 131.668504,72.2275833 131.992923,72.2286829 L137.467283,72.247238 C137.791529,72.248337 138.05378,72.5189886 138.053039,72.8511348 L138.0414,78.0683178 C138.040659,78.4007418 137.777378,78.6693343 137.452959,78.6682347 L131.978599,78.6496797 C131.654353,78.6485807 131.392102,78.377929 131.392843,78.0457829 L131.404482,72.8285999 Z M138.73745,72.8534545 C138.738191,72.5210305 139.001471,72.252438 139.325891,72.2535376 L144.800251,72.2720926 C145.124497,72.2731916 145.386748,72.5438433 145.386007,72.8759894 L145.374368,78.0931724 C145.373626,78.4255964 145.110346,78.694189 144.785927,78.6930894 L139.311566,78.6745343 C138.987321,78.6734353 138.72507,78.4027837 138.725811,78.0706375 L138.73745,72.8534545 Z M146.070417,72.8783092 C146.071159,72.5458852 146.334439,72.2772927 146.658859,72.2783923 L152.133219,72.2969473 C152.457464,72.2980463 152.719715,72.5686979 152.718975,72.9008441 L152.707336,78.1180271 C152.706594,78.4504511 152.443314,78.7190436 152.118894,78.717944 L146.644534,78.699389 C146.320289,78.69829 146.058037,78.4276384 146.058778,78.0954922 L146.070417,72.8783092 Z M127.314359,65.4907318 C127.3151,65.1583079 127.578381,64.8897153 127.9028,64.8908149 L133.37716,64.9093699 C133.701406,64.910469 133.963657,65.1811206 133.962916,65.5132667 L133.951277,70.7304498 C133.950536,71.0628737 133.687255,71.3314663 133.362836,71.3303667 L127.888476,71.3118117 C127.56423,71.3107127 127.301979,71.040061 127.30272,70.7079149 L127.314359,65.4907318 Z M134.647326,65.5155865 C134.648068,65.1831625 134.911348,64.91457 135.235768,64.9156696 L140.710128,64.9342246 C141.034374,64.9353236 141.296625,65.2059753 141.295884,65.5381214 L141.284245,70.7553044 C141.283503,71.0877284 141.020223,71.3563209 140.695804,71.3552213 L135.221443,71.3366663 C134.897198,71.3355673 134.634947,71.0649157 134.635688,70.7327695 L134.647326,65.5155865 Z M141.980294,65.5404412 C141.981036,65.2080172 142.244316,64.9394246 142.568735,64.9405242 L148.043096,64.9590793 C148.367341,64.9601783 148.629592,65.2308299 148.628851,65.5629761 L148.617213,70.7801591 C148.616471,71.1125831 148.353191,71.3811756 148.028771,71.380076 L142.554411,71.361521 C142.230165,71.360422 141.967914,71.0897703 141.968655,70.7576242 L141.980294,65.5404412 Z M149.313262,65.5652958 C149.314003,65.2328719 149.577381,64.9642796 149.900858,64.965376 L159.385598,64.997524 C159.709376,64.9986214 159.971249,65.2692718 159.970508,65.6014179 L159.958869,70.818601 C159.958128,71.1510249 159.69475,71.4196172 159.371273,71.4185208 L149.886533,71.3863728 C149.562755,71.3852754 149.300882,71.114625 149.301623,70.7824789 L149.313262,65.5652958 Z M130.258961,60.3835278 C130.259703,60.0513325 130.523363,59.7829267 130.846786,59.7840229 L136.517923,59.8032449 C136.841829,59.8043428 137.103804,60.0752337 137.103065,60.4067255 L137.096348,63.4175191 C137.095607,63.7497144 136.831947,64.0181202 136.508523,64.017024 L130.837386,63.997802 C130.51348,63.9967042 130.251505,63.7258132 130.252245,63.3943215 L130.258961,60.3835278 Z M137.885248,60.4093766 C137.885989,60.0771814 138.149649,59.8087755 138.473073,59.8098718 L144.14421,59.8290938 C144.468115,59.8301916 144.730091,60.1010825 144.729351,60.4325743 L144.722634,63.443368 C144.721893,63.7755633 144.458233,64.0439691 144.134809,64.0428729 L138.463672,64.0236509 C138.139767,64.022553 137.877792,63.7516621 137.878531,63.4201703 L137.885248,60.4093766 Z M145.511534,60.4352255 C145.512275,60.1030302 145.775936,59.8346244 146.099359,59.8357206 L151.770496,59.8549426 C152.094402,59.8560405 152.356377,60.1269314 152.355637,60.4584232 L152.348921,63.4692168 C152.34818,63.8014121 152.084519,64.0698179 151.761096,64.0687217 L146.089959,64.0494997 C145.766053,64.0484019 145.504078,63.7775109 145.504818,63.4460192 L145.511534,60.4352255 Z M153.137821,60.4610743 C153.138562,60.1288791 153.402222,59.8604732 153.725645,59.8615695 L159.396783,59.8807915 C159.720688,59.8818893 159.982663,60.1527802 159.981924,60.484272 L159.975207,63.4950657 C159.974466,63.8272609 159.710806,64.0956668 159.387382,64.0945706 L153.716245,64.0753486 C153.392339,64.0742507 153.130364,63.8033598 153.131104,63.471868 L153.137821,60.4610743 Z M66.9558005,79.9341596 C66.9565421,79.6017357 67.2198224,79.3331431 67.5442419,79.3342427 L73.018602,79.3527977 C73.3428476,79.3538968 73.6050988,79.6245484 73.6043579,79.9566945 L73.592719,85.1738776 C73.5919774,85.5063015 73.3286971,85.7748941 73.0042776,85.7737945 L67.5299175,85.7552395 C67.2056719,85.7541405 66.9434207,85.4834888 66.9441617,85.1513427 L66.9558005,79.9341596 Z M74.2887682,79.9590143 C74.2895098,79.6265903 74.5527901,79.3579978 74.8772095,79.3590974 L80.3515697,79.3776524 C80.6758153,79.3787514 80.9380665,79.6494031 80.9373255,79.9815492 L80.9256867,85.1987322 C80.9249451,85.5311562 80.6616648,85.7997487 80.3372453,85.7986491 L74.8628851,85.7800941 C74.5386395,85.7789951 74.2763883,85.5083435 74.2771293,85.1761973 L74.2887682,79.9590143 Z M81.6217358,79.983869 C81.6224774,79.651445 81.8857577,79.3828524 82.2101772,79.383952 L87.6845374,79.4025071 C88.008783,79.4036061 88.2710342,79.6742577 88.2702932,80.0064039 L88.2586543,85.2235869 C88.2579127,85.5560109 87.9946325,85.8246034 87.670213,85.8235038 L82.1958528,85.8049488 C81.8716072,85.8038498 81.609356,85.5331981 81.610097,85.201052 L81.6217358,79.983869 Z M88.9547035,80.0087236 C88.9554451,79.6762996 89.2187254,79.4077071 89.5431449,79.4088067 L95.017505,79.4273617 C95.3417506,79.4284607 95.6040018,79.6991124 95.6032609,80.0312585 L95.591622,85.2484415 C95.5908804,85.5808655 95.3276001,85.8494581 95.0031806,85.8483585 L89.5288205,85.8298034 C89.2045749,85.8287044 88.9423237,85.5580528 88.9430647,85.2259067 L88.9547035,80.0087236 Z M96.2876712,80.0335783 C96.2884128,79.7011543 96.5516931,79.4325618 96.8761125,79.4336614 L102.350473,79.4522164 C102.674718,79.4533154 102.936969,79.723967 102.936229,80.0561132 L102.92459,85.2732962 C102.923848,85.6057202 102.660568,85.8743127 102.336148,85.8732131 L96.8617881,85.8546581 C96.5375425,85.8535591 96.2752913,85.5829075 96.2760323,85.2507613 L96.2876712,80.0335783 Z M110.953607,80.0832876 C110.954348,79.7508636 111.217628,79.4822711 111.542048,79.4833707 L117.016408,79.5019257 C117.340654,79.5030247 117.602905,79.7736764 117.602164,80.1058225 L117.590525,85.3230055 C117.589783,85.6554295 117.326503,85.9240221 117.002084,85.9229225 L111.527723,85.9043674 C111.203478,85.9032684 110.941227,85.6326168 110.941968,85.3004706 L110.953607,80.0832876 Z M118.286574,80.1081423 C118.287316,79.7757183 118.550596,79.5071258 118.875016,79.5082254 L124.349376,79.5267804 C124.673621,79.5278794 124.935872,79.798531 124.935132,80.1306772 L124.923493,85.3478602 C124.922751,85.6802842 124.659471,85.9488767 124.335051,85.9477771 L118.860691,85.9292221 C118.536446,85.9281231 118.274194,85.6574714 118.274935,85.3253253 L118.286574,80.1081423 Z M53.919327,94.5379877 C53.9200686,94.205561 54.1833489,93.9369663 54.5077683,93.9380659 L59.9821285,93.956621 C60.3063741,93.95772 60.5686248,94.2286016 60.5678843,94.5605226 L60.5544549,100.580321 C60.5537133,100.912747 60.290433,101.181342 59.9660135,101.180242 L54.4916534,101.161687 C54.1674078,101.160588 53.9051571,100.889707 53.9058976,100.557786 L53.919327,94.5379877 Z M61.2522946,94.5628424 C61.2530362,94.2304157 61.5163165,93.961821 61.840736,93.9629206 L67.3150962,93.9814756 C67.6393418,93.9825746 67.9015924,94.2534563 67.900852,94.5853773 L67.8874226,100.605175 C67.886681,100.937602 67.6234007,101.206197 67.2989812,101.205097 L61.824621,101.186542 C61.5003754,101.185443 61.2381248,100.914561 61.2388652,100.58264 L61.2522946,94.5628424 Z M68.5852623,94.587697 C68.5860039,94.2552704 68.8492842,93.9866757 69.1737037,93.9877753 L74.6480638,94.0063303 C74.9723094,94.0074293 75.2345601,94.278311 75.2338196,94.6102319 L75.2203902,100.63003 C75.2196486,100.962457 74.9563684,101.231051 74.6319489,101.229952 L69.1575887,101.211397 C68.8333431,101.210298 68.5710924,100.939416 68.5718329,100.607495 L68.5852623,94.587697 Z M53.9520045,79.890084 C53.9527461,79.5576601 54.2163545,79.2890686 54.5402823,79.2901666 L65.685798,79.3279436 C66.0099532,79.3290423 66.2721312,79.5996937 66.2713902,79.9318399 L66.2597513,85.1490229 C66.2590097,85.4814469 65.9954013,85.7500383 65.6714736,85.7489404 L54.5259578,85.7111633 C54.2018026,85.7100646 53.9396247,85.4394132 53.9403657,85.1072671 L53.9520045,79.890084 Z M78.0855726,87.2958881 C78.0863142,86.9634642 78.3495945,86.6948716 78.674014,86.6959712 L84.1483741,86.7145262 C84.4726197,86.7156252 84.7348709,86.9862769 84.7341299,87.318423 L84.7224911,92.5356061 C84.7217495,92.86803 84.4584692,93.1366226 84.1340497,93.135523 L78.6596895,93.116968 C78.3354439,93.1158689 78.0731928,92.8452173 78.0739337,92.5130712 L78.0855726,87.2958881 Z M85.4185403,87.3207428 C85.4192818,86.9883188 85.6825621,86.7197263 86.0069816,86.7208259 L91.4813418,86.7393809 C91.8055874,86.7404799 92.0678386,87.0111316 92.0670976,87.3432777 L92.0554587,92.5604607 C92.0547172,92.8928847 91.7914369,93.1614772 91.4670174,93.1603776 L85.9926572,93.1418226 C85.6684116,93.1407236 85.4061604,92.870072 85.4069014,92.5379258 L85.4185403,87.3207428 Z M85.4022015,94.644697 C85.4029431,94.3122704 85.6661577,94.0436755 85.9906364,94.0447753 L120.79688,94.162749 C121.121122,94.163848 121.38337,94.4347296 121.382629,94.7666506 L121.3692,100.786449 C121.368458,101.118875 121.105244,101.38747 120.780765,101.38637 L85.9745215,101.268397 C85.6502794,101.267298 85.3880316,100.996416 85.3887721,100.664495 L85.4022015,94.644697 Z M92.7515079,87.3455975 C92.7522495,87.0131735 93.0155298,86.7445809 93.3399493,86.7456805 L98.8143094,86.7642356 C99.138555,86.7653346 99.4008062,87.0359862 99.4000653,87.3681324 L99.3884264,92.5853154 C99.3876848,92.9177394 99.1244045,93.1863319 98.799985,93.1852323 L93.3256249,93.1666773 C93.0013793,93.1655783 92.7391281,92.8949266 92.7398691,92.5627805 L92.7515079,87.3455975 Z M100.084476,87.3704521 C100.085217,87.0380281 100.348497,86.7694356 100.672917,86.7705352 L106.147277,86.7890902 C106.471523,86.7901892 106.733774,87.0608409 106.733033,87.392987 L106.721394,92.61017 C106.720652,92.942594 106.457372,93.2111866 106.132953,93.210087 L100.658593,93.1915319 C100.334347,93.1904329 100.072096,92.9197813 100.072837,92.5876351 L100.084476,87.3704521 Z M107.417443,87.3953068 C107.418185,87.0628828 107.681465,86.7942903 108.005885,86.7953899 L113.480245,86.8139449 C113.80449,86.8150439 114.066742,87.0856955 114.066001,87.4178417 L114.054362,92.6350247 C114.05362,92.9674487 113.79034,93.2360412 113.46592,93.2349416 L107.99156,93.2163866 C107.667315,93.2152876 107.405063,92.944636 107.405804,92.6124898 L107.417443,87.3953068 Z M114.750411,87.4201614 C114.751153,87.0877375 115.014433,86.8191449 115.338852,86.8202445 L120.813212,86.8387995 C121.137458,86.8398986 121.399709,87.1105502 121.398968,87.4426963 L121.387329,92.6598794 C121.386588,92.9923033 121.123308,93.2608959 120.798888,93.2597963 L115.324528,93.2412413 C115.000282,93.2401423 114.738031,92.9694906 114.738772,92.6373445 L114.750411,87.4201614 Z M122.083379,87.4450161 C122.08412,87.1125921 122.3474,86.8439996 122.67182,86.8450992 L128.14618,86.8636542 C128.470426,86.8647532 128.732677,87.1354049 128.731936,87.467551 L128.720297,92.684734 C128.719555,93.017158 128.456275,93.2857505 128.131856,93.2846509 L122.657496,93.2660959 C122.33325,93.2649969 122.070999,92.9943453 122.07174,92.6621991 L122.083379,87.4450161 Z M70.7526049,87.2710335 C70.7533465,86.9386095 71.0166268,86.670017 71.3410463,86.6711166 L76.8154065,86.6896716 C77.1396521,86.6907706 77.4019032,86.9614222 77.4011623,87.2935684 L77.3895234,92.5107514 C77.3887818,92.8431754 77.1255015,93.1117679 76.801082,93.1106683 L71.3267219,93.0921133 C71.0024763,93.0910143 70.7402251,92.8203626 70.7409661,92.4882165 L70.7526049,87.2710335 Z M63.4196373,87.2461788 C63.4203789,86.9137548 63.6836591,86.6451623 64.0080786,86.6462619 L69.4824388,86.6648169 C69.8066844,86.6659159 70.0689356,86.9365676 70.0681946,87.2687137 L70.0565558,92.4858967 C70.0558142,92.8183207 69.7925339,93.0869133 69.4681144,93.0858137 L63.9937542,93.0672586 C63.6695086,93.0661596 63.4072574,92.795508 63.4079984,92.4633618 L63.4196373,87.2461788 Z M103.620639,80.058433 C103.62138,79.726009 103.884661,79.4574164 104.20908,79.458516 L109.68344,79.4770711 C110.007686,79.4781701 110.269937,79.7488217 110.269196,80.0809678 L110.257557,85.2981509 C110.256816,85.6305748 109.993535,85.8991674 109.669116,85.8980678 L104.194756,85.8795128 C103.87051,85.8784138 103.608259,85.6077621 103.609,85.275616 L103.620639,80.058433 Z M53.9356657,87.2140335 C53.9364073,86.8816095 54.199167,86.6130152 54.5237515,86.6141153 L62.1498268,86.6399635 C62.4738759,86.6410618 62.7359679,86.9117129 62.7352269,87.243859 L62.7235881,92.4610421 C62.7228465,92.793466 62.4600869,93.0620604 62.1355023,93.0609602 L54.5094271,93.0351121 C54.1853779,93.0340137 53.9232859,92.7633626 53.9240269,92.4312165 L53.9356657,87.2140335 Z M75.91823,94.6125517 C75.9189716,94.280125 76.1817312,94.0115286 76.5063157,94.0126287 L84.132391,94.0384768 C84.4564402,94.0395752 84.7185316,94.3104563 84.7177911,94.6423773 L84.7043618,100.662175 C84.7036202,100.994602 84.4408605,101.263198 84.116276,101.262098 L76.4902007,101.23625 C76.1661516,101.235152 75.9040601,100.964271 75.9048006,100.63235 L75.91823,94.6125517 Z" id="Macbook-base" fill="#06602C" transform="translate(106.943911, 80.521237) rotate(-135.000000) translate(-106.943911, -80.521237) "></path>
                    <path d="M45.8186598,35.4127329 L48.5662809,35.0029218 L79.5183674,60.2493526 L85.4074193,179.682742 L85.4074193,179.682742 C83.661821,180.289376 81.7451615,180.164915 80.0926778,179.33762 L52.4614602,165.504411 C48.6984823,163.620525 46.3015436,159.794007 46.2486283,155.58613 L44.7531578,36.6647747 C44.7452975,36.0397155 45.2003904,35.5049485 45.8186598,35.4127329 Z" id="Macbook-base" fill="#1E865D" transform="translate(65.080238, 107.532614) rotate(-44.000000) translate(-65.080238, -107.532614) "></path>
                    <path d="M48.9776051,34.2342455 L82.5403851,56.5627962 L84.8260462,178.770253 L53.9357655,163.305449 C50.5876298,161.62925 48.456403,158.223078 48.4131228,154.479045 L47.0353148,35.2894241 C47.027335,34.5991143 47.5804727,34.0330387 48.2707825,34.0250588 C48.5220608,34.0221541 48.7683808,34.0950534 48.9776051,34.2342455 Z" id="Macbook-base" fill="url(#linearGradient-3)" transform="translate(65.930638, 106.397614) rotate(-44.000000) translate(-65.930638, -106.397614) "></path>
                    <path d="M52.048854,38.9263576 L81.4851294,58.1813782 L83.6602383,174.055277 L57.1836592,160.341978 C53.9135182,158.648239 51.8389705,155.294189 51.7839049,151.61186 L50.1147273,39.9911261 C50.1044049,39.3008473 50.6556184,38.7328979 51.3458971,38.7225754 C51.5952997,38.7188458 51.840115,38.789816 52.048854,38.9263576 Z" id="Macbook-base" fill="url(#linearGradient-10)" fill-rule="nonzero" transform="translate(66.887411, 106.388856) rotate(-44.000000) translate(-66.887411, -106.388856) "></path>
                </g>
                <g id="Book" transform="translate(328.000000, 180.000000)" fill-rule="nonzero">
                    <polygon id="Book-base" fill="url(#linearGradient-1)" transform="translate(8.774551, 46.345615) rotate(-120.000000) translate(-8.774551, -46.345615) " points="3.655513 39.3068959 8.48841438 45.7057313 13.8935881 39.3068959 13.8935881 53.3843337 3.655513 53.3843337"></polygon>
                    <path d="M23.3539597,8.68272008 L79.7824105,8.68272008 C82.5438343,8.68272008 84.7824105,10.9212963 84.7824105,13.6827201 L84.7824105,75.3496762 C84.7824105,78.1110999 82.5438343,80.3496762 79.7824105,80.3496762 L23.3539597,80.3496762 L23.3539597,8.68272008 Z" id="Book-base" fill="url(#linearGradient-11)" transform="translate(54.068185, 44.516198) rotate(-120.000000) translate(-54.068185, -44.516198) "></path>
                    <polygon id="Book-base" fill="#FFFFFF" opacity="0.449999988" transform="translate(41.876840, 51.554917) rotate(-120.000000) translate(-41.876840, -51.554917) " points="23.960208 43.2364311 59.793471 43.2364311 59.793471 59.873403 23.960208 59.873403"></polygon>
                    <polygon id="Book-base" fill="#FFFFFF" opacity="0.449999988" transform="translate(69.264503, 35.003673) rotate(-120.000000) translate(-69.264503, -35.003673) " points="54.5472703 33.0840226 83.9817363 33.0840226 83.9817363 36.9233238 54.5472703 36.9233238"></polygon>
                    <polygon id="Book-base" fill="#FFFFFF" opacity="0.449999988" transform="translate(74.806024, 31.804256) rotate(-120.000000) translate(-74.806024, -31.804256) " points="60.088791 29.8846049 89.523257 29.8846049 89.523257 33.7239061 60.088791 33.7239061"></polygon>
                </g>
                <g id="Ipad" transform="translate(128.000000, 102.000000)">
                    <path d="M24.4802255,13.1924589 L93.8253078,13.1924589 C96.5867316,13.1924589 98.8253078,15.4310352 98.8253078,18.1924589 L98.8253078,107.374407 C98.8253078,110.135831 96.5867316,112.374407 93.8253078,112.374407 L24.4802255,112.374407 C21.7188018,112.374407 19.4802255,110.135831 19.4802255,107.374407 L19.4802255,18.1924589 C19.4802255,15.4310352 21.7188018,13.1924589 24.4802255,13.1924589 Z" id="Ipad-base" fill="url(#linearGradient-5)" transform="translate(59.152767, 62.783433) rotate(-30.000000) translate(-59.152767, -62.783433) "></path>
                    <ellipse id="Ipad-base" fill="url(#linearGradient-10)" fill-rule="nonzero" transform="translate(81.708526, 101.851389) rotate(-30.000000) translate(-81.708526, -101.851389) " cx="81.708526" cy="101.851389" rx="3.19939848" ry="3.19941768"></ellipse>
                    <ellipse id="Ipad-base" fill="url(#linearGradient-10)" fill-rule="nonzero" transform="translate(36.277068, 23.161322) rotate(-30.000000) translate(-36.277068, -23.161322) " cx="36.2770676" cy="23.161322" rx="1.27975939" ry="1.27976707"></ellipse>
                    <polygon id="Ipad-base" fill="url(#linearGradient-10)" fill-rule="nonzero" transform="translate(58.672857, 61.952200) rotate(-30.000000) translate(-58.672857, -61.952200) " points="21.5598346 20.35977 95.7858793 20.35977 95.7858793 103.54463 21.5598346 103.54463"></polygon>
                </g>
                <g id="Coffee" transform="translate(340.500000, 154.568703) scale(1, -1) translate(-340.500000, -154.568703) translate(311.000000, 123.068703)" fill-rule="nonzero">
                    <ellipse id="Coffee-base" fill="url(#linearGradient-2)" transform="translate(29.434466, 29.434643) rotate(-180.000000) translate(-29.434466, -29.434643) " cx="29.434466" cy="29.4346427" rx="29.434466" ry="29.4346427"></ellipse>
                    <path d="M30.0743457,47.3513817 L30.0743457,47.3513817 C31.8413247,47.3513817 33.2737442,48.7838012 33.2737442,50.5507802 L33.2737442,62.068703 L26.8749472,62.068703 L26.8749472,50.5507802 C26.8749472,48.7838012 28.3073667,47.3513817 30.0743457,47.3513817 Z" id="Coffee-base" fill="#32B179" transform="translate(30.074346, 54.710042) rotate(-180.000000) translate(-30.074346, -54.710042) "></path>
                    <ellipse id="Coffee-base" fill="#32B179" transform="translate(29.434466, 28.794759) rotate(-180.000000) translate(-29.434466, -28.794759) " cx="29.434466" cy="28.7947591" rx="19.8362706" ry="19.8363896"></ellipse>
                    <ellipse id="Coffee-base" fill="#1F8B5E" style="mix-blend-mode: multiply;" transform="translate(29.434466, 28.794759) rotate(-180.000000) translate(-29.434466, -28.794759) " cx="29.434466" cy="28.7947591" rx="15.9969924" ry="15.9970884"></ellipse>
                </g>
            </g>
        </g>
    </g>
</svg>